<?xml version="1.0" encoding="utf-8"?>
<!-- Generator: Adobe Illustrator 20.1.0, SVG Export Plug-In . SVG Version: 6.00 Build 0)  -->
<svg version="1.1" id="Layer_1" xmlns="http://www.w3.org/2000/svg" xmlns:xlink="http://www.w3.org/1999/xlink" x="0px" y="0px"
	 viewBox="0 0 15 15" style="enable-background:new 0 0 15 15;" xml:space="preserve">
<style type="text/css">
	.st0{fill:#373D3F;}
</style>
<desc>Created with Sketch.</desc>
<g id="small-calendar" transform="translate(52.000000, 12.000000)">
	<g id="Capa_1">
		<g id="calendar_1_">
			<path id="Shape" class="st0" d="M-38.2-10.6h-2v-0.9c0-0.3-0.2-0.5-0.5-0.5s-0.5,0.2-0.5,0.5v0.9H-44v-0.9c0-0.3-0.2-0.5-0.5-0.5
				s-0.5,0.2-0.5,0.5v0.9h-2.8v-0.9c0-0.3-0.2-0.5-0.5-0.5s-0.5,0.2-0.5,0.5v0.9h-2c-0.7,0-1.3,0.6-1.3,1.2V1.7
				c0,0.7,0.6,1.3,1.3,1.3h12.5c0.7,0,1.2-0.6,1.2-1.3V-9.3C-37-10-37.6-10.6-38.2-10.6L-38.2-10.6z M-37.9,1.7
				c0,0.2-0.1,0.3-0.3,0.3h-12.5c-0.2,0-0.3-0.1-0.3-0.3V-9.3c0-0.2,0.1-0.3,0.3-0.3h2v0.9c0,0.3,0.2,0.5,0.5,0.5s0.5-0.2,0.5-0.5
				v-0.9h2.8v0.9c0,0.3,0.2,0.5,0.5,0.5S-44-8.5-44-8.7v-0.9h2.8v0.9c0,0.3,0.2,0.5,0.5,0.5s0.5-0.2,0.5-0.5v-0.9h2
				c0.2,0,0.3,0.1,0.3,0.3V1.7L-37.9,1.7z"/>
			<rect id="Rectangle-path" x="-48.7" y="-6.4" class="st0" width="1.9" height="1.4"/>
			<rect id="Rectangle-path_1_" x="-48.7" y="-4" class="st0" width="1.9" height="1.4"/>
			<rect id="Rectangle-path_2_" x="-48.7" y="-1.7" class="st0" width="1.9" height="1.4"/>
			<rect id="Rectangle-path_3_" x="-45.4" y="-1.7" class="st0" width="1.9" height="1.4"/>
			<rect id="Rectangle-path_4_" x="-45.4" y="-4" class="st0" width="1.9" height="1.4"/>
			<rect id="Rectangle-path_5_" x="-45.4" y="-6.4" class="st0" width="1.9" height="1.4"/>
			<rect id="Rectangle-path_6_" x="-42.2" y="-1.7" class="st0" width="1.9" height="1.4"/>
			<rect id="Rectangle-path_7_" x="-42.2" y="-4" class="st0" width="1.9" height="1.4"/>
			<rect id="Rectangle-path_8_" x="-42.2" y="-6.4" class="st0" width="1.9" height="1.4"/>
		</g>
	</g>
</g>
</svg>
