<svg width="15px" height="15px" viewBox="52 12 15 15" version="1.1" xmlns="http://www.w3.org/2000/svg" xmlns:xlink="http://www.w3.org/1999/xlink">
    <defs></defs>
    <g id="small-calendar" stroke="none" stroke-width="1" fill="none" fill-rule="evenodd" transform="translate(52.000000, 12.000000)">
        <g id="Capa_1" fill="#373D3F">
            <g id="calendar_1_">
                <path d="M13.7503125,1.40625 L11.71875,1.40625 L11.71875,0.46875 C11.71875,0.20953125 11.5092188,0 11.25,0 C10.9907812,0 10.78125,0.20953125 10.78125,0.46875 L10.78125,1.40625 L7.96875,1.40625 L7.96875,0.46875 C7.96875,0.20953125 7.75875,0 7.5,0 C7.24125,0 7.03125,0.20953125 7.03125,0.46875 L7.03125,1.40625 L4.21875,1.40625 L4.21875,0.46875 C4.21875,0.20953125 4.00875,0 3.75,0 C3.49125,0 3.28125,0.20953125 3.28125,0.46875 L3.28125,1.40625 L1.25015625,1.40625 C0.5596875,1.40625 0,1.96546875 0,2.6559375 L0,13.7498438 C0,14.4403125 0.5596875,15 1.25015625,15 L13.7503125,15 C14.4407812,15 15,14.4403125 15,13.7498438 L15,2.6559375 C15,1.96546875 14.4407812,1.40625 13.7503125,1.40625 L13.7503125,1.40625 Z M14.0625,13.7498438 C14.0625,13.9223437 13.9223437,14.0625 13.7503125,14.0625 L1.25015625,14.0625 C1.07765625,14.0625 0.9375,13.9223437 0.9375,13.7498438 L0.9375,2.6559375 C0.9375,2.48390625 1.07765625,2.34375 1.25015625,2.34375 L3.28125,2.34375 L3.28125,3.28125 C3.28125,3.54046875 3.49125,3.75 3.75,3.75 C4.00875,3.75 4.21875,3.54046875 4.21875,3.28125 L4.21875,2.34375 L7.03125,2.34375 L7.03125,3.28125 C7.03125,3.54046875 7.24125,3.75 7.5,3.75 C7.75875,3.75 7.96875,3.54046875 7.96875,3.28125 L7.96875,2.34375 L10.78125,2.34375 L10.78125,3.28125 C10.78125,3.54046875 10.9907812,3.75 11.25,3.75 C11.5092188,3.75 11.71875,3.54046875 11.71875,3.28125 L11.71875,2.34375 L13.7503125,2.34375 C13.9223437,2.34375 14.0625,2.48390625 14.0625,2.6559375 L14.0625,13.7498438 L14.0625,13.7498438 Z" id="Shape"></path>
                <rect id="Rectangle-path" x="3.28125" y="5.625" width="1.875" height="1.40625"></rect>
                <rect id="Rectangle-path" x="3.28125" y="7.96875" width="1.875" height="1.40625"></rect>
                <rect id="Rectangle-path" x="3.28125" y="10.3125" width="1.875" height="1.40625"></rect>
                <rect id="Rectangle-path" x="6.5625" y="10.3125" width="1.875" height="1.40625"></rect>
                <rect id="Rectangle-path" x="6.5625" y="7.96875" width="1.875" height="1.40625"></rect>
                <rect id="Rectangle-path" x="6.5625" y="5.625" width="1.875" height="1.40625"></rect>
                <rect id="Rectangle-path" x="9.84375" y="10.3125" width="1.875" height="1.40625"></rect>
                <rect id="Rectangle-path" x="9.84375" y="7.96875" width="1.875" height="1.40625"></rect>
                <rect id="Rectangle-path" x="9.84375" y="5.625" width="1.875" height="1.40625"></rect>
            </g>
        </g>
    </g>
</svg>