
<svg width="103px" height="22px" viewBox="30 32 103 22" version="1.1" xmlns="http://www.w3.org/2000/svg" xmlns:xlink="http://www.w3.org/1999/xlink">
    <!-- Generator: Sketch 39.1 (31720) - http://www.bohemiancoding.com/sketch -->
    <desc>Created with Sketch.</desc>
    <defs>
        <polygon id="path-1" points="0 0.0103033193 0 3.19096752 6.35147997 3.19096752 6.35147997 0.0103033193 0 0.0103033193"></polygon>
    </defs>
    <g id="Logo" stroke="none" stroke-width="1" fill="none" fill-rule="evenodd" transform="translate(30.000000, 32.000000)">
        <path d="M39.3179406,8.23092241 C39.3179406,7.55149388 40.0728949,7.02296312 41.2304915,7.02296312 C42.7152348,7.02296312 44.0986963,7.652196 44.8284854,8.43217126 L46.1119077,6.24221084 C44.9036702,5.28616227 43.268402,4.58093658 41.205171,4.58093658 C38.0098193,4.58093658 36.2230942,6.3682439 36.2230942,8.40699573 C36.2230942,13.1897251 43.4442473,11.5536263 43.4442473,13.5670472 C43.4442473,14.3224686 42.7904196,14.8763303 41.4064921,14.8763303 C39.8970496,14.8763303 38.085004,14.0456931 37.20469,13.215056 L35.8206072,15.4550567 C37.1041848,16.6384621 39.14194,17.3430661 41.2558119,17.3430661 C44.6271643,17.3430661 46.5143946,15.6564609 46.5143946,13.4416358 C46.5143946,8.53287339 39.3179406,10.0435607 39.3179406,8.23092241 L39.3179406,8.23092241 Z" id="Fill-1" fill="#3DD281"></path>
        <path d="M56.1027488,4.58087442 C54.1148579,4.58087442 52.5996678,5.53754461 51.8229659,6.46888387 L51.8229659,0.210433253 L48.5608178,0.210433253 L48.5608178,16.9941208 L51.8229659,16.9941208 L51.8229659,8.86024854 C52.288987,8.13015813 53.3268161,7.42555406 54.5595974,7.42555406 C55.9438356,7.42555406 56.7938582,7.95424022 56.7938582,9.6403792 L56.7938582,16.9941208 L60.0560062,16.9941208 L60.0560062,8.40693357 C60.0560062,6.04089983 58.7696325,4.58087442 56.1027488,4.58087442" id="Fill-3" fill="#3DD281"></path>
        <path d="M67.6681666,13.3301331 L64.4979801,4.87255315 L61.0759867,4.87255315 L66.0075779,17.2116716 L65.55445,18.2461995 C65.2524683,18.9007633 64.6993012,19.1288971 63.8688515,19.1288971 C63.5670251,19.1288971 63.1392177,19.0538367 62.8625565,18.9282699 L62.3842635,21.7984359 C62.7867504,21.899138 63.5923456,21.9741984 63.9695121,21.9741984 C66.0580635,21.9241581 67.6681666,21.3145062 68.5738011,19.0244653 L74.2855117,4.87255315 L70.8383532,4.87255315 L67.6681666,13.3301331 Z" id="Fill-5" fill="#3DD281"></path>
        <path d="M76.6773808,4.22878995 L76.6773808,4.87263085 L74.6579558,4.87263085 L74.6579558,7.66991212 L76.6773808,7.66991212 L76.6773808,16.994183 L79.9395288,16.994183 L79.9395288,7.66991212 L82.424975,7.66991212 L82.424975,4.87263085 L79.9395288,4.87263085 L79.9395288,4.86579306 L79.9395288,4.85817823 C79.9395288,3.15882987 80.3934335,2.64661659 81.5657873,2.51949569 C81.8143319,2.49261071 82.1142942,2.48266482 82.424975,2.48266482 L82.424975,2.05250513 L82.424975,0.211272438 C81.8036135,0.0633273397 81.338835,7.77022578e-05 80.8092797,7.77022578e-05 C78.3688822,7.77022578e-05 76.6773808,1.63602103 76.6773808,4.22878995" id="Fill-7" fill="#3DD281"></path>
        <path d="M89.6042328,14.4984642 C88.8997642,14.4984642 88.4832966,13.9195824 88.4832966,13.1644718 L88.4832966,7.66983441 L90.9687427,7.66983441 L90.9687427,4.87255315 L88.4832966,4.87255315 L88.4832966,1.60905834 L85.2211485,1.60905834 L85.2211485,4.87255315 L83.2017235,4.87255315 L83.2017235,7.66983441 L85.2211485,7.66983441 L85.2211485,14.0202845 C85.2211485,16.1850694 86.4637163,17.3431438 88.7027926,17.3431438 C90.0368558,17.3431438 90.9094027,16.990531 91.3873851,16.5630132 L90.725635,14.1463176 C90.5491684,14.3223909 90.0826812,14.4984642 89.6042328,14.4984642" id="Fill-9" fill="#3DD281"></path>
        <path d="M95.6065387,8.23092241 C95.6065387,7.55149388 96.3614929,7.02296312 97.5186235,7.02296312 C99.0032115,7.02296312 100.387294,7.652196 101.117083,8.43217126 L102.399884,6.24221084 C101.192268,5.28616227 99.557,4.58093658 97.493769,4.58093658 C94.2984173,4.58093658 92.5118475,6.3682439 92.5118475,8.40699573 C92.5118475,13.1897251 99.7330006,11.5536263 99.7330006,13.5670472 C99.7330006,14.3224686 99.0785516,14.8763303 97.6950901,14.8763303 C96.1850263,14.8763303 94.373602,14.0456931 93.4928221,13.215056 L92.1092052,15.4550567 C93.3921615,16.6384621 95.430538,17.3430661 97.5437886,17.3430661 C100.915762,17.3430661 102.802527,15.6564609 102.802527,13.4416358 C102.802527,8.53287339 95.6065387,10.0435607 95.6065387,8.23092241" id="Fill-11" fill="#3DD281"></path>
        <g id="Group-15" transform="translate(0.000000, 9.386433)">
            <mask id="mask-2" fill="white">
                <use xlink:href="#path-1"></use>
            </mask>
            <g id="Clip-14"></g>
            <polygon id="Fill-13" fill-opacity="0.35" fill="#3DD281" mask="url(#mask-2)" points="6.35147997 3.19096752 -7.76701927e-05 3.19096752 -7.76701927e-05 0.0103033193 6.35147997 0.0103033193"></polygon>
        </g>
        <polygon id="Fill-16" fill-opacity="0.65" fill="#3DD281" points="3.17034191 18.938682 25.4449103 18.938682 25.4449103 15.7580178 3.17034191 15.7580178"></polygon>
        <polygon id="Fill-18" fill="#3DD281" points="9.52189955 12.5773536 25.4343472 12.5773536 25.4343472 9.39668938 9.52189955 9.39668938"></polygon>
        <polygon id="Fill-20" fill-opacity="0.65" fill="#3DD281" points="0 6.21618058 19.0545176 6.21618058 19.0545176 3.03551638 0 3.03551638"></polygon>
    </g>
</svg>
