<svg width="21px" height="21px" viewBox="20 20 21 21" version="1.1" xmlns="http://www.w3.org/2000/svg" xmlns:xlink="http://www.w3.org/1999/xlink">
    <desc>Created with Sketch.</desc>
    <defs></defs>
    <path d="M32.1578947,28.8421053 L32.1578947,21.6653879 C32.1578947,20.7474011 31.41563,20 30.5,20 C29.5779864,20 28.8421053,20.7456196 28.8421053,21.6653879 L28.8421053,28.8421053 L21.6653879,28.8421053 C20.7474011,28.8421053 20,29.58437 20,30.5 C20,31.4220136 20.7456196,32.1578947 21.6653879,32.1578947 L28.8421053,32.1578947 L28.8421053,39.3346121 C28.8421053,40.2525989 29.58437,41 30.5,41 C31.4220136,41 32.1578947,40.2543804 32.1578947,39.3346121 L32.1578947,32.1578947 L39.3346121,32.1578947 C40.2525989,32.1578947 41,31.41563 41,30.5 C41,29.5779864 40.2543804,28.8421053 39.3346121,28.8421053 L32.1578947,28.8421053 Z" id="Plus-sign" stroke="none" fill="#FFFFFF" fill-rule="evenodd"></path>
</svg>